<svg width="140" height="137" viewBox="0 0 140 137" fill="none" xmlns="http://www.w3.org/2000/svg">
<path id="Residential" fill-rule="evenodd" clip-rule="evenodd" d="M67.8815 0.260529C67.2746 0.408586 66.3942 0.72285 65.925 0.958833C64.9994 1.42456 1.36571 52.1244 0.526718 53.0649C-0.562189 54.2851 -0.212247 54.9746 3.97803 59.8679C6.15702 62.4121 8.26397 64.781 8.66028 65.1321C9.77864 66.1225 10.9647 65.9685 12.6103 64.6187L14.0141 63.4674V92.982V122.497H7.73118C-0.599225 122.497 0.0163837 121.954 0.0163837 129.304C0.0163837 134.675 0.0222161 134.724 0.73231 135.415L1.44794 136.111H70.0051H138.562L139.278 135.415C139.988 134.724 139.994 134.675 139.994 129.304C139.994 123.933 139.988 123.883 139.278 123.193C138.696 122.627 138.27 122.497 136.996 122.497H135.431L135.095 120.742C134.633 118.325 133.552 116.313 131.771 114.553C130.379 113.177 127.364 111.456 126.288 111.422C126.047 111.414 125.391 110.693 124.83 109.819C123.637 107.962 121.2 106.088 118.771 105.16C116.403 104.254 112.257 104.255 109.886 105.162C107.513 106.068 105.036 107.981 103.833 109.835C103.272 110.7 102.615 111.414 102.375 111.422C101.333 111.455 98.2735 113.182 96.9125 114.506C95.1643 116.206 94.0304 118.32 93.5673 120.742L93.2317 122.497H79.2853H65.3392V95.9644V69.4317L64.6232 68.7356L63.9076 68.0393H46.6755H29.4434L28.7278 68.7356L28.0119 69.4317V95.9644V122.497H23.3448H18.6774L18.7518 91.0941L18.8258 59.6912L44.3058 39.3312C58.3199 28.1331 69.8905 18.9709 70.0182 18.9709C70.1459 18.9709 81.7107 28.1288 95.7175 39.3221L121.184 59.673L121.33 80.332L121.476 100.991L122.164 101.533C123.123 102.288 124.411 102.224 125.28 101.379L125.996 100.683V82.0752V63.4674L127.4 64.6187C129.045 65.9685 130.232 66.1225 131.35 65.1321C131.746 64.781 133.853 62.4121 136.032 59.8679C140.322 54.8581 140.61 54.2531 139.338 52.9166C138.977 52.5374 135.83 49.9626 132.345 47.1949L126.008 42.1624L125.929 22.5319L125.85 2.90115L125.01 1.82987C123.538 -0.0472121 123.427 -0.0622444 111.566 0.0285179C101.376 0.106233 100.927 0.132327 100.154 0.694203C99.7112 1.01584 99.0784 1.63104 98.7477 2.0616C98.1767 2.805 98.142 3.271 98.0612 11.3307L97.976 19.817L94.7076 17.1749C83.0314 7.73708 74.6485 1.22062 73.6045 0.7705C72.1377 0.138283 69.3871 -0.107058 67.8815 0.260529ZM68.244 5.01109C67.689 5.28905 54.3087 15.843 38.5102 28.4644C22.7117 41.0854 8.8997 52.1153 7.81721 52.975C6.73471 53.8347 5.84877 54.6314 5.84877 54.7458C5.84877 54.8601 6.91173 56.1829 8.21089 57.6859C10.3295 60.1368 10.6223 60.3764 11.0542 60.0139C11.3187 59.7916 24.5075 49.2535 40.3622 36.5958C63.5282 18.1016 69.3518 13.5819 70.0164 13.5819C70.681 13.5819 76.5006 18.0993 99.659 36.5916C115.508 49.2467 128.691 59.7851 128.956 60.0097C129.389 60.377 129.676 60.1416 131.812 57.6711C133.118 56.1602 134.148 54.8147 134.101 54.6805C133.93 54.1918 72.4558 5.2621 71.5454 4.88969C70.2882 4.37519 69.4527 4.4061 68.244 5.01109ZM102.666 14.0374V23.5692L103.462 24.1773C103.9 24.5117 107.935 27.7261 112.43 31.3206C116.924 34.9147 120.765 37.9536 120.966 38.0736C121.256 38.2469 121.33 34.8399 121.33 21.3985V4.50566H111.998H102.666V14.0374ZM75.3869 68.7356L74.671 69.4317V83.9227V98.4138L75.3869 99.1098L76.1025 99.8062H93.3346H110.567L111.282 99.1098L111.998 98.4138V83.9227V69.4317L111.282 68.7356L110.567 68.0393H93.3346H76.1025L75.3869 68.7356ZM32.6778 97.5371V122.497H46.6755H60.6732V97.5371V72.5774H46.6755H32.6778V97.5371ZM79.3369 77.1156V81.6537H85.1693H91.0017V77.1156V72.5774H85.1693H79.3369V77.1156ZM95.6676 77.1156V81.6537H101.5H107.332V77.1156V72.5774H101.5H95.6676V77.1156ZM79.3369 90.7299V95.268H85.1693H91.0017V90.7299V86.1918H85.1693H79.3369V90.7299ZM95.6676 90.7299V95.268H101.5H107.332V90.7299V86.1918H101.5H95.6676V90.7299ZM111.675 109.325C109.888 109.86 108.08 111.478 106.946 113.558C105.987 115.317 105.988 115.317 103.189 115.993C100.753 116.58 98.6357 118.867 98.1382 121.446L97.9355 122.497H114.331H130.727L130.524 121.443C129.961 118.527 127.696 116.35 124.67 115.818C122.912 115.508 122.564 115.236 121.633 113.443C119.705 109.726 115.767 108.098 111.675 109.325ZM4.6823 129.304V131.573H70.0051H135.328V129.304V127.035H70.0051H4.6823V129.304Z" fill="#424242"/>
</svg>
