<svg width="25" height="25" viewBox="0 0 25 25" fill="none" xmlns="http://www.w3.org/2000/svg">
<path id="Instagram" fill-rule="evenodd" clip-rule="evenodd" d="M5.64484 0.570205C3.29622 0.921035 1.36813 2.61247 0.727993 4.88354C0.501263 5.688 0.5 5.73024 0.5 12.5011C0.5 19.272 0.501263 19.3142 0.727993 20.1187C1.28724 22.1027 2.89269 23.7112 4.87285 24.2716C5.67576 24.4987 5.71792 24.5 12.4757 24.5C19.2336 24.5 19.2757 24.4987 20.0786 24.2716C22.3514 23.6285 24.1589 21.5367 24.3874 19.2853C24.4051 19.1105 24.4377 18.9564 24.4598 18.9427C24.4819 18.929 24.5 16.0067 24.5 12.4487C24.5 8.82424 24.4822 5.99064 24.4596 6.00466C24.4373 6.01844 24.4047 5.88784 24.3871 5.71444C24.3187 5.04048 24.0203 4.15492 23.65 3.52704C22.6803 1.88301 21.1391 0.839422 19.2832 0.570111C18.6388 0.476591 6.2709 0.476637 5.64484 0.570205ZM5.75596 2.56737C5.05111 2.68545 4.14386 3.17673 3.63019 3.71849C3.14889 4.22613 2.86845 4.71112 2.64364 5.42469L2.5335 5.77421V12.5011C2.5335 18.9394 2.53725 19.2401 2.62095 19.5093C2.94818 20.5617 3.49633 21.3099 4.3486 21.8673C4.7455 22.1269 5.34999 22.3651 5.79619 22.4376C6.19763 22.5029 18.7539 22.5029 19.1553 22.4376C19.6306 22.3603 20.2244 22.119 20.6643 21.8241C21.4071 21.3263 21.9591 20.6025 22.2601 19.7317L22.418 19.2749L22.4311 12.7121C22.4398 8.36718 22.4279 6.04305 22.3959 5.83505C22.2838 5.10578 21.8756 4.29968 21.326 3.72234C20.7892 3.15849 19.904 2.68635 19.1553 2.5646C18.7931 2.50573 6.10831 2.50835 5.75596 2.56737ZM18.6516 4.55141C18.3225 4.62285 18.1531 4.71436 17.923 4.94485C17.207 5.66226 17.3975 6.87278 18.2989 7.33269C18.5804 7.47633 19.1013 7.5278 19.3821 7.43971C19.4821 7.40835 19.674 7.3086 19.8084 7.21813C20.738 6.59231 20.6309 5.16039 19.6184 4.67765C19.2719 4.51241 18.9967 4.4765 18.6516 4.55141ZM0.521007 12.5011C0.521007 16.072 0.526575 17.5328 0.533359 15.7474C0.540143 13.9619 0.540143 11.0403 0.533359 9.25486C0.526575 7.46939 0.521007 8.93023 0.521007 12.5011ZM11.7101 6.55401C9.4788 6.84109 7.52039 8.44781 6.81653 10.5687C6.21962 12.3674 6.46689 14.2602 7.50308 15.8242C7.83714 16.3285 8.47611 16.9961 8.95563 17.3421C11.3985 19.1043 14.6874 18.8157 16.7679 16.6566C19.0775 14.2596 19.0118 10.5112 16.6196 8.19721C15.3066 6.92716 13.5026 6.32338 11.7101 6.55401ZM11.7626 8.56191C10.3187 8.82555 9.12869 9.8862 8.65769 11.3292C8.53679 11.6996 8.52762 11.7821 8.52762 12.5011C8.52762 13.2201 8.53679 13.3027 8.65769 13.6731C9.07872 14.963 10.0186 15.9047 11.3061 16.3265C11.6757 16.4477 11.7581 16.4569 12.4757 16.4569C13.1934 16.4569 13.2758 16.4477 13.6454 16.3265C14.9329 15.9047 15.8728 14.963 16.2938 13.6731C16.4147 13.3027 16.4239 13.2201 16.4239 12.5011C16.4239 11.7821 16.4147 11.6996 16.2938 11.3292C15.8721 10.0373 14.9194 9.08417 13.6454 8.67972C13.3136 8.57438 13.1431 8.5508 12.6161 8.53744C12.2687 8.52858 11.8846 8.5396 11.7626 8.56191Z" fill="#AD9B87"/>
</svg>
