<svg width="25" height="19" viewBox="0 0 25 19" fill="none" xmlns="http://www.w3.org/2000/svg">
<path id="Vector" fill-rule="evenodd" clip-rule="evenodd" d="M1.78526 0.963889C1.52889 1.0258 1.06854 1.29538 0.922121 1.46945C0.849101 1.55621 0.724268 1.75057 0.644698 1.90145L0.5 2.17565V9.50451V16.8334L0.683463 17.1717C0.887221 17.5475 1.05442 17.7093 1.4607 17.9236L1.7349 18.0683H12.5H23.2651L23.5393 17.9236C23.9456 17.7093 24.1128 17.5475 24.3165 17.1717L24.5 16.8334V9.50451V2.17565L24.3165 1.83734C24.1128 1.46155 23.9456 1.29973 23.5393 1.08545L23.2651 0.940748L12.6074 0.93248C6.74564 0.92797 1.87568 0.942091 1.78526 0.963889ZM2.19128 2.84008V3.04819L7.31863 6.89377C10.1387 9.00888 12.4743 10.7394 12.5088 10.7394C12.5433 10.7394 14.8749 9.01184 17.6901 6.90037L22.8087 3.06134V2.84668V2.63202H12.5H2.19128V2.84008ZM2.19128 10.7932V16.377H12.5H22.8087V10.7932V5.20931L18.0973 8.74032C15.506 10.6824 13.278 12.3193 13.146 12.3778C12.9755 12.4536 12.7887 12.4844 12.5 12.4844C12.2113 12.4844 12.0245 12.4536 11.854 12.3778C11.722 12.3193 9.49399 10.6824 6.90268 8.74032L2.19128 5.20931V10.7932Z" fill="#AD9B87"/>
</svg>
