<svg width="25" height="25" viewBox="0 0 25 25" fill="none" xmlns="http://www.w3.org/2000/svg">
<path id="Vector" fill-rule="evenodd" clip-rule="evenodd" d="M11.5798 0.509314C8.00799 0.843565 4.94193 2.53713 2.84644 5.33323C0.188841 8.87945 -0.244476 13.5621 1.71649 17.544L1.95495 18.0283L1.24342 21.2569C0.852113 23.0326 0.53852 24.4919 0.546602 24.4999C0.554683 24.5078 2.03084 24.1796 3.82692 23.7707L7.09254 23.0271L7.53892 23.2288C8.67789 23.7436 9.99879 24.1064 11.2138 24.2383C11.8821 24.3109 13.2988 24.2993 13.9776 24.2157C16.174 23.9454 18.3331 23.0306 20.0845 21.6282C20.5975 21.2174 21.4773 20.3379 21.8866 19.8268C23.2885 18.076 24.1374 16.0801 24.4289 13.8489C24.5118 13.2142 24.525 11.7589 24.4536 11.1159C24.3041 9.76861 23.9401 8.52496 23.3267 7.26534C22.7278 6.0355 22.0216 5.0481 21.0243 4.04581C19.9986 3.01512 19.1682 2.40996 17.8996 1.76884C16.2215 0.920718 14.6604 0.539226 12.731 0.505792C12.2141 0.49687 11.6961 0.498419 11.5798 0.509314ZM11.4624 2.40945C9.50444 2.61137 7.53638 3.43563 6.04294 4.67919C4.90387 5.62766 4.05697 6.69423 3.40883 7.99677C2.22113 10.3835 2.0532 13.1076 2.93816 15.6307C3.10059 16.0938 3.56196 17.0851 3.77951 17.4385C3.85728 17.5648 3.91963 17.7153 3.91808 17.773C3.91648 17.8308 3.70814 18.8078 3.45511 19.9442C3.20204 21.0806 2.99905 22.0158 3.00404 22.0224C3.00902 22.029 3.98931 21.8124 5.18241 21.5409L7.35167 21.0473L8.02091 21.3742C9.52046 22.1066 10.8452 22.4103 12.5329 22.4087C14.1629 22.407 15.5454 22.093 16.9599 21.4033C19.9974 19.9221 22.0674 17.0878 22.5528 13.7456C22.6521 13.0612 22.6513 11.7557 22.551 11.0487C22.0031 7.18725 19.1525 3.88287 15.4205 2.7831C14.164 2.41283 12.7362 2.27806 11.4624 2.40945ZM8.30157 7.24726C8.05695 7.36823 7.66996 7.78687 7.43146 8.18831C7.18816 8.59798 7.06651 9.01474 7.03559 9.54457C6.96703 10.7202 7.48169 11.8472 8.89971 13.6266C9.90073 14.8828 11.1287 15.9145 12.3081 16.4902C12.8887 16.7736 13.9731 17.1634 14.6322 17.3255C15.2672 17.4817 15.9561 17.4885 16.4202 17.343C16.9809 17.1673 17.6757 16.6714 17.8938 16.2913C18.1295 15.8805 18.2615 14.9612 18.111 14.7776C18.0417 14.693 16.1 13.7265 15.744 13.5994C15.3792 13.4691 15.3296 13.4921 14.9496 13.9687C14.1939 14.9163 14.0942 15.0068 13.8587 14.9597C13.692 14.9264 12.7898 14.4877 12.4514 14.2754C11.5305 13.6978 10.59 12.7321 10.0064 11.7648C9.76395 11.363 9.77838 11.2934 10.1952 10.8561C10.5119 10.5238 10.7793 10.101 10.7806 9.93024C10.7808 9.89798 10.5917 9.40783 10.3603 8.84109C9.65146 7.10512 9.68642 7.14795 8.97743 7.14799C8.58833 7.14799 8.46579 7.16603 8.30157 7.24726Z" fill="#AD9B87"/>
</svg>
